<svg width="25" height="25" viewBox="0 0 25 25" fill="none" xmlns="http://www.w3.org/2000/svg">
<path d="M12.5 2.5C6.986 2.5 2.5 6.986 2.5 12.5C2.5 18.014 6.986 22.5 12.5 22.5C18.014 22.5 22.5 18.014 22.5 12.5C22.5 6.986 18.014 2.5 12.5 2.5ZM20.431 11.5H17.667C17.5436 9.31125 16.9313 7.17797 15.875 5.257C17.0992 5.82905 18.1589 6.7014 18.9554 7.79291C19.752 8.88442 20.2596 10.1597 20.431 11.5ZM13.03 4.527C14.065 5.891 15.457 8.307 15.657 11.5H9.53C9.669 8.904 10.524 6.472 11.981 4.526C12.153 4.516 12.325 4.5 12.5 4.5C12.679 4.5 12.854 4.516 13.03 4.527ZM9.188 5.227C8.204 7.118 7.636 9.262 7.53 11.5H4.569C4.74177 10.1478 5.25663 8.8621 6.06489 7.76442C6.87315 6.66673 7.94808 5.79339 9.188 5.227ZM4.569 13.5H7.543C7.679 15.879 8.208 17.978 9.099 19.73C7.88119 19.1559 6.82773 18.2842 6.03596 17.1953C5.24419 16.1064 4.73966 14.8355 4.569 13.5ZM11.95 20.473C10.549 18.775 9.722 16.396 9.541 13.5H15.654C15.446 16.273 14.537 18.696 13.051 20.472C12.869 20.484 12.687 20.5 12.5 20.5C12.314 20.5 12.133 20.484 11.95 20.473ZM15.961 19.701C16.916 17.907 17.499 15.8 17.652 13.5H20.43C20.2612 14.8243 19.764 16.0853 18.9834 17.1684C18.2029 18.2514 17.1639 19.122 15.961 19.701Z" fill="black"/>
</svg>
