<svg width="25" height="25" viewBox="0 0 25 25" fill="none" xmlns="http://www.w3.org/2000/svg">
<path d="M10.5 18.5C12.275 18.4996 13.9988 17.9054 15.397 16.812L19.793 21.208L21.207 19.794L16.811 15.398C17.905 13.9997 18.4996 12.2754 18.5 10.5C18.5 6.089 14.911 2.5 10.5 2.5C6.089 2.5 2.5 6.089 2.5 10.5C2.5 14.911 6.089 18.5 10.5 18.5ZM10.5 4.5C13.809 4.5 16.5 7.191 16.5 10.5C16.5 13.809 13.809 16.5 10.5 16.5C7.191 16.5 4.5 13.809 4.5 10.5C4.5 7.191 7.191 4.5 10.5 4.5Z" fill="black"/>
<path d="M11.912 9.08609C12.291 9.46609 12.5 9.96809 12.5 10.5001H14.5C14.5009 9.97451 14.3976 9.45398 14.1961 8.96857C13.9946 8.48316 13.6989 8.04251 13.326 7.67209C11.812 6.16009 9.18701 6.16009 7.67401 7.67209L9.08601 9.08809C9.84601 8.33009 11.156 8.33209 11.912 9.08609Z" fill="black"/>
</svg>
