<svg width="25" height="25" viewBox="0 0 25 25" fill="none" xmlns="http://www.w3.org/2000/svg">
<path d="M12.5 2.5C11.5111 2.5 10.5444 2.79324 9.72215 3.34265C8.8999 3.89206 8.25904 4.67295 7.8806 5.58658C7.50216 6.50021 7.40315 7.50555 7.59607 8.47545C7.789 9.44536 8.2652 10.3363 8.96447 11.0355C9.66373 11.7348 10.5546 12.211 11.5245 12.4039C12.4945 12.5969 13.4998 12.4978 14.4134 12.1194C15.327 11.741 16.1079 11.1001 16.6573 10.2779C17.2068 9.45561 17.5 8.48891 17.5 7.5C17.5 6.17392 16.9732 4.90215 16.0355 3.96447C15.0979 3.02678 13.8261 2.5 12.5 2.5ZM12.5 10.5C11.9067 10.5 11.3266 10.3241 10.8333 9.99441C10.3399 9.66476 9.95542 9.19623 9.72836 8.64805C9.5013 8.09987 9.44189 7.49667 9.55764 6.91473C9.6734 6.33279 9.95912 5.79824 10.3787 5.37868C10.7982 4.95912 11.3328 4.6734 11.9147 4.55764C12.4967 4.44189 13.0999 4.5013 13.6481 4.72836C14.1962 4.95542 14.6648 5.33994 14.9944 5.83329C15.3241 6.32664 15.5 6.90666 15.5 7.5C15.5 8.29565 15.1839 9.05871 14.6213 9.62132C14.0587 10.1839 13.2956 10.5 12.5 10.5ZM21.5 21.5V20.5C21.5 18.6435 20.7625 16.863 19.4497 15.5503C18.137 14.2375 16.3565 13.5 14.5 13.5H10.5C8.64348 13.5 6.86301 14.2375 5.55025 15.5503C4.2375 16.863 3.5 18.6435 3.5 20.5V21.5H5.5V20.5C5.5 19.1739 6.02678 17.9021 6.96447 16.9645C7.90215 16.0268 9.17392 15.5 10.5 15.5H14.5C15.8261 15.5 17.0979 16.0268 18.0355 16.9645C18.9732 17.9021 19.5 19.1739 19.5 20.5V21.5H21.5Z" fill="black"/>
</svg>
